<svg width="108" height="101" viewBox="0 0 108 101" fill="none" xmlns="http://www.w3.org/2000/svg">
<g clip-path="url(#clip0_130_476)">
<g opacity="0.72">
<path d="M88.0949 53.0006L74.6461 44.5692L72.0856 42.9639L78.5228 31.7406C86.689 17.8811 96.5462 17.8332 102.309 23.1118V23.1138C110.208 30.3487 110.426 47.5824 88.0949 53.0006Z" fill="#75C7EA"/>
</g>
<g opacity="0.7">
<path d="M106.054 28.5978C102.858 22.7469 96.0756 19.3568 88.9584 23.2036C88.2744 26.7592 85.997 28.542 82.4354 28.893H82.4334C81.3765 30.2051 80.3355 31.7147 79.3225 33.4397L73.3898 43.7835L72.0876 42.9659L78.5248 31.7426C88.9703 14.0124 102.182 18.8822 106.054 28.5978Z" fill="white"/>
</g>
<g opacity="0.72">
<path d="M63.4448 40.5609L61.7717 45.4885C61.7717 45.4885 48.5543 48.1487 48.6261 48.5476C48.658 48.7231 45.5152 44.6609 41.9875 40.0584C37.4986 34.2034 32.3855 27.4711 32.3855 27.4711C26.6143 10.2813 38.0031 1.34734 48.6261 4.9927V4.99469C57.1871 7.93212 65.2496 19.0337 63.4448 40.5609Z" fill="#75C7EA"/>
</g>
<g opacity="0.7">
<path d="M34.1144 28.7992C34.1144 28.7992 45.2499 43.4604 49.0788 48.3302C48.7816 48.4279 48.6181 48.5017 48.6261 48.5476C48.6979 48.9464 32.3855 27.4711 32.3855 27.4711C25.5534 7.1185 42.7732 -1.65988 54.2995 8.30903C42.8749 0.555655 27.6174 9.44371 34.1144 28.7992Z" fill="white"/>
</g>
<path d="M63.446 41.3885C63.4225 41.3885 63.3994 41.3885 63.3758 41.3857C63.1572 41.3673 62.9547 41.2628 62.8131 41.0952C62.6714 40.9276 62.6021 40.7106 62.6204 40.4919C64.0108 23.9095 59.4194 11.2461 50.3391 6.61597C45.3744 4.08576 39.9239 4.55479 36.1142 7.84C31.4594 11.8543 30.3861 18.9129 33.17 27.2055C33.2056 27.3088 33.2204 27.4181 33.2136 27.5271C33.2067 27.6361 33.1783 27.7427 33.1301 27.8407C33.0819 27.9387 33.0147 28.0262 32.9325 28.0981C32.8502 28.17 32.7546 28.225 32.651 28.2597C32.5475 28.2945 32.4381 28.3084 32.3291 28.3007C32.2201 28.293 32.1138 28.2638 32.0162 28.2147C31.9185 28.1657 31.8316 28.0978 31.7603 28.0151C31.6891 27.9323 31.6349 27.8362 31.601 27.7323C30.0375 23.0751 29.6168 18.7908 30.3506 14.9983C31.0151 11.5639 32.6344 8.65682 35.0334 6.58686C39.3623 2.85335 45.5152 2.29977 51.0905 5.14148C55.4741 7.37496 59.0273 11.463 61.3605 16.9606C64.0726 23.3459 65.051 31.3091 64.2696 40.6287C64.2525 40.8355 64.1584 41.0284 64.0059 41.1691C63.8534 41.3098 63.6536 41.3881 63.446 41.3885Z" fill="#212327"/>
<g opacity="0.3">
<path d="M63.4448 40.5609L61.7717 45.4885C61.7717 45.4885 48.5543 48.1488 48.6261 48.5476C48.658 48.7231 45.5152 44.6609 41.9875 40.0584C43.6825 39.3305 45.6228 38.7023 47.8204 38.2197C70.3686 33.2343 48.8494 5.28187 48.6281 4.9967C57.1871 7.93214 65.2496 19.0337 63.4448 40.5609Z" fill="#3D1D55"/>
</g>
<path d="M94.5102 76.4246C94.5102 76.4246 97.4955 80.3209 98.2931 88.9457C98.2931 88.9457 94.3686 85.2433 91.0379 84.3942" fill="#3D1D55"/>
<path d="M79.4162 98.0591C79.277 98.4865 78.974 98.8413 78.5737 99.0458C78.1734 99.2502 77.7083 99.2877 77.2804 99.1499C75.2552 98.4921 73.3544 97.4999 71.6569 96.2145C67.8859 93.3628 66.2028 89.9667 66.1071 89.7673C65.9189 89.3641 65.8969 88.9031 66.0456 88.4838C66.1944 88.0645 66.502 87.7205 66.9022 87.526C67.3023 87.3315 67.7629 87.3022 68.1845 87.4443C68.6061 87.5864 68.955 87.8886 69.1558 88.2856C69.1897 88.3534 70.8628 91.6578 74.554 94.1006C75.7217 94.8784 76.9905 95.4924 78.325 95.9253C78.5367 95.9938 78.7329 96.1033 78.9024 96.2475C79.0718 96.3918 79.2112 96.5681 79.3125 96.7662C79.4138 96.9643 79.4752 97.1805 79.4929 97.4023C79.5107 97.6242 79.4847 97.8473 79.4162 98.0591Z" fill="#FFCD01"/>
<path d="M77.8033 100.06C77.5391 100.06 77.2765 100.019 77.0252 99.9368C68.9133 97.3081 65.5032 90.4194 65.3621 90.1274C65.0738 89.5261 65.0354 88.8352 65.2552 88.2056C65.475 87.5761 65.935 87.0592 66.5349 86.7679C67.1347 86.4766 67.8254 86.4346 68.4561 86.6512C69.0868 86.8677 69.6061 87.3252 69.9004 87.9235C69.9235 87.9697 72.6061 93.2017 78.5807 95.1376C79.152 95.3231 79.6384 95.7063 79.9525 96.2183C80.2666 96.7303 80.3876 97.3376 80.2939 97.9309C80.2002 98.5243 79.8979 99.0647 79.4414 99.4551C78.9849 99.8454 78.404 100.06 77.8033 100.06ZM67.6302 88.162C67.5002 88.1619 67.3719 88.1913 67.2549 88.2481C67.0485 88.3485 66.8902 88.5265 66.8146 88.7432C66.739 88.96 66.7524 89.1978 66.8517 89.4048C66.9805 89.6708 70.0879 95.9457 77.5357 98.3606C77.754 98.4295 77.9907 98.4092 78.1941 98.3044C78.3975 98.1995 78.5513 98.0185 78.6219 97.8008C78.6924 97.583 78.6741 97.3462 78.5708 97.142C78.4675 96.9377 78.2877 96.7825 78.0706 96.7102C71.41 94.5517 68.5344 88.893 68.4151 88.6537C68.3436 88.5064 68.2321 88.3822 68.0933 88.2952C67.9545 88.2082 67.794 88.1621 67.6302 88.162Z" fill="#212327"/>
<g opacity="0.3">
<path d="M74.5544 94.1006L74.0798 94.4137C74.0798 94.4137 72.6739 95.0479 71.6569 96.2145C67.8859 93.3628 66.2028 89.9667 66.1071 89.7673C65.9189 89.3641 65.8969 88.9031 66.0456 88.4838C66.1944 88.0645 66.502 87.7205 66.9022 87.526C67.3023 87.3315 67.7629 87.3022 68.1845 87.4443C68.6061 87.5864 68.955 87.8886 69.1558 88.2856C69.1901 88.3534 70.8632 91.6578 74.5544 94.1006Z" fill="#3D1D55"/>
</g>
<path d="M45.587 76.169C45.5909 76.3284 45.5721 76.4875 45.5311 76.6416C45.4513 76.9407 43.7982 82.7976 36.5154 86.2695C34.9998 86.9934 33.241 87.6136 31.2009 88.0583C31.0818 88.0852 30.9601 88.0986 30.838 88.0982C30.4203 88.0975 30.0176 87.9425 29.7071 87.6631C29.3967 87.3836 29.2004 86.9994 29.1559 86.5841C29.1114 86.1687 29.2218 85.7516 29.466 85.4128C29.7102 85.0739 30.071 84.8371 30.479 84.7479C33.2769 84.1377 35.4346 83.1526 37.0897 82.0578C40.3064 79.926 41.6265 77.3675 42.0672 76.2886C42.1402 76.1191 42.2028 75.9453 42.2547 75.7682C42.36 75.3738 42.6042 75.0307 42.9422 74.8019C43.2802 74.5731 43.6895 74.474 44.0947 74.5227C44.5 74.5715 44.8741 74.7648 45.1482 75.0673C45.4223 75.3697 45.5781 75.7609 45.587 76.169Z" fill="#FFCD01"/>
<path d="M30.8384 88.9261C30.2636 88.9232 29.7069 88.7251 29.2594 88.3644C28.8119 88.0037 28.5002 87.5018 28.3752 86.9407C28.2327 86.287 28.3557 85.6035 28.7171 85.0405C29.0785 84.4774 29.6487 84.081 30.3024 83.9383C39.5458 81.9218 41.3844 75.8052 41.4578 75.546C41.6351 74.9039 42.0591 74.358 42.6373 74.0273C43.2156 73.6967 43.9011 73.6081 44.5444 73.7811C45.1877 73.954 45.7365 74.3743 46.071 74.9504C46.4055 75.5264 46.4986 76.2114 46.33 76.8558C46.2287 77.2351 43.7073 86.1778 31.3776 88.8679C31.2005 88.9065 31.0197 88.926 30.8384 88.9261ZM43.8915 75.3354C43.7006 75.3358 43.5151 75.3991 43.3637 75.5154C43.2123 75.6318 43.1035 75.7947 43.054 75.9791C43.034 76.0541 40.9692 83.3038 30.6546 85.554C30.4298 85.6032 30.2338 85.7395 30.1095 85.9331C29.9852 86.1267 29.9428 86.3618 29.9917 86.5866C30.0425 86.8105 30.1792 87.0054 30.3725 87.1294C30.5658 87.2533 30.8 87.2963 31.0247 87.249C42.3787 84.7719 44.6397 76.7664 44.7303 76.427C44.7895 76.2047 44.758 75.968 44.6429 75.7689C44.5277 75.5698 44.3383 75.4245 44.1161 75.3649C44.0428 75.3456 43.9673 75.3356 43.8915 75.3354Z" fill="#212327"/>
<g opacity="0.3">
<path d="M45.587 76.169C45.5909 76.3284 45.5721 76.4875 45.5311 76.6416C45.4514 76.9407 43.7982 82.7976 36.5154 86.2695C37.3829 84.6602 37.2333 82.8854 37.0898 82.0578C40.3064 79.926 41.6265 77.3675 42.0672 76.2886C42.5453 76.0779 43.0509 75.9362 43.5689 75.8679C44.069 75.8061 44.6673 75.9038 45.587 76.169Z" fill="#3D1D55"/>
</g>
<g opacity="0.72">
<path d="M60.2541 40.5609C42.7975 4.23213 80.9936 -5.42888 79.6128 29.3807C79.6128 29.3807 75.0777 40.105 70.7567 43.2957" fill="#75C7EA"/>
</g>
<path d="M60.255 41.3885C60.0989 41.3886 59.9461 41.3447 59.814 41.2617C59.6819 41.1787 59.5759 41.0601 59.5083 40.9194C56.2251 34.0866 54.6633 27.7774 54.8663 22.1678C55.0888 16.0181 57.3674 12.3875 59.2395 10.4245C62.4781 7.02956 67.0272 5.99737 71.1105 7.72513C77.3854 10.3834 80.8732 18.4913 80.4396 29.4138C80.4373 29.5238 80.4131 29.6322 80.3684 29.7327C80.3237 29.8331 80.2594 29.9237 80.1793 29.9991C80.0992 30.0744 80.0049 30.1331 79.9019 30.1715C79.7989 30.21 79.6892 30.2276 79.5793 30.2232C79.4694 30.2189 79.3615 30.1926 79.2619 30.1461C79.1623 30.0995 79.0729 30.0336 78.9991 29.9521C78.9252 29.8706 78.8683 29.7752 78.8318 29.6715C78.7952 29.5678 78.7797 29.4578 78.7861 29.348C79.1909 19.1418 76.08 11.6281 70.4648 9.24908C67.0308 7.79453 63.1888 8.68234 60.4372 11.5671C58.7621 13.322 56.7241 16.5972 56.5202 22.2276C56.3268 27.5664 57.8344 33.614 61 40.2023C61.0606 40.3284 61.0883 40.4678 61.0804 40.6075C61.0725 40.7472 61.0293 40.8826 60.9549 41.0011C60.8805 41.1196 60.7773 41.2172 60.6549 41.285C60.5324 41.3527 60.3949 41.3883 60.255 41.3885Z" fill="#212327"/>
<g opacity="0.72">
<path d="M72.2212 42.1144L60.1664 40.878L57.0415 40.5589C42.7413 13.1888 56.7005 0.212659 68.9368 1.05221C80.8261 1.87381 91.0918 15.7354 72.2212 42.1144Z" fill="#75C7EA"/>
</g>
<g opacity="0.7">
<path d="M57.0096 8.26118C58.6169 12.9096 57.0316 15.9388 53.3842 17.921C52.772 23.8636 54.2397 31.4714 58.9878 40.7583L57.0415 40.5589C40.5915 9.0748 61.538 -3.3629 74.2373 2.37037C68.2827 0.763059 61.2353 2.7014 57.0096 8.26118Z" fill="white"/>
</g>
<path d="M72.2196 42.9412C72.068 42.9405 71.9195 42.8982 71.7902 42.8189C71.661 42.7396 71.556 42.6263 71.4868 42.4914C71.4176 42.3565 71.3867 42.2051 71.3977 42.0539C71.4086 41.9027 71.4609 41.7573 71.5488 41.6338C82.5842 26.2068 84.8863 12.7816 77.7072 5.72139C72.8131 0.908232 64.3737 0.549278 58.4949 4.90497C49.8509 11.3087 49.5825 24.4954 57.777 40.1792C57.8786 40.3738 57.8988 40.6008 57.8331 40.8103C57.7674 41.0197 57.6212 41.1945 57.4266 41.2962C57.232 41.3978 57.005 41.418 56.7956 41.3523C56.5861 41.2866 56.4113 41.1404 56.3097 40.9458C51.6616 32.0493 49.6336 24.071 50.2817 17.2322C50.9792 9.85014 54.5983 5.73016 57.5098 3.57325C60.6678 1.23408 64.5851 0.0371738 68.5428 0.204685C72.5311 0.372994 76.1968 1.9125 78.8682 4.54003C81.3211 6.95219 84.0898 11.4096 83.3492 18.946C82.666 25.8961 79.149 33.8529 72.8957 42.597C72.8186 42.7041 72.717 42.7913 72.5994 42.8511C72.4818 42.911 72.3516 42.9419 72.2196 42.9412Z" fill="#212327"/>
<path d="M88.0949 53.8286C87.8924 53.8286 87.6968 53.7543 87.5454 53.6198C87.394 53.4853 87.2971 53.2999 87.2732 53.0988C87.2492 52.8977 87.2999 52.6948 87.4155 52.5285C87.5312 52.3622 87.7038 52.2441 87.9007 52.1965C104.322 48.2122 106.268 38.6026 106.342 34.6561C106.459 28.4427 102.492 22.6113 97.1134 21.0889C90.9286 19.3392 84.4124 23.3751 79.2359 32.1602C79.1218 32.3437 78.9405 32.4754 78.7306 32.5269C78.5207 32.5785 78.299 32.5459 78.1128 32.4362C77.9267 32.3264 77.7908 32.1482 77.7343 31.9396C77.6778 31.731 77.7052 31.5086 77.8105 31.3199C85.7473 17.8504 94.2693 18.5643 97.5649 19.4964C103.743 21.2437 108.13 27.6326 107.998 34.6872C107.921 38.7917 106.31 42.6512 103.339 45.8483C99.9116 49.5371 94.8492 52.2137 88.2915 53.8046C88.2272 53.8207 88.1612 53.8287 88.0949 53.8286Z" fill="#212327"/>
<path d="M94.6657 75.3972C94.4657 76.8804 94.1618 78.3478 93.7564 79.7884C90.9047 86.6963 84.7467 90.5171 77.5576 91.8672C76.4304 92.0765 75.2927 92.2256 74.1496 92.3139C68.2129 92.7865 61.8455 91.7475 56.196 89.5041C52.5825 88.0703 49.2622 86.1419 46.5382 83.8027C43.4891 81.1843 41.1838 78.0495 40.0471 74.5098L48.6181 53.3137L53.4301 41.4164C57.3426 40.1661 61.6261 39.9268 65.9116 40.5549L65.9376 40.5609C69.5231 41.0894 73.1066 42.23 76.4728 43.8972C79.347 45.3171 82.0222 47.1086 84.4296 49.2256V49.2276C87.6402 52.0574 90.3304 55.4734 92.185 59.358C94.442 64.0882 95.4594 69.5044 94.6657 75.3972Z" fill="#FFCD01"/>
<path d="M56.196 89.5041C52.5825 88.0703 49.2622 86.1419 46.5382 83.8027C57.5999 84.9234 72.0856 62.9715 65.9376 40.5609C69.5231 41.0894 73.1066 42.23 76.4728 43.8972C79.498 68.5034 69.1622 87.3344 56.196 89.5041Z" fill="#232325"/>
<path d="M77.5576 91.8672C77.1149 92.0765 76.6642 92.262 76.2076 92.4275L74.1496 92.3139L64.398 91.7794C73.5354 91.9788 89.07 63.7313 84.4296 49.2276C87.6402 52.0573 90.3304 55.4734 92.1849 59.358C94.4583 69.7298 88.1587 86.8777 77.5576 91.8672Z" fill="#232325"/>
<g opacity="0.7">
<path d="M94.6657 75.3972C94.4657 76.8804 94.1618 78.3478 93.7564 79.7884C93.6367 80.0776 93.5131 80.3607 93.3815 80.6379C93.6417 79.5672 93.8454 78.4836 93.9917 77.3914C94.7854 71.4986 93.7683 66.0804 91.5109 61.3542C89.6563 57.4696 86.9642 54.0535 83.7556 51.2238V51.2218C81.3482 49.1047 78.673 47.3133 75.7988 45.8933C72.4326 44.2262 68.8491 43.0855 65.2635 42.5571L65.2376 42.5511C60.9521 41.9229 56.6686 42.1622 52.754 43.4126L47.9421 55.3099L40.105 74.6933C40.083 74.6335 40.0651 74.5736 40.0451 74.5138L48.6161 53.3177L53.4281 41.4204C57.3407 40.17 61.6242 39.9307 65.9097 40.5589L65.9356 40.5649C69.5211 41.0933 73.1046 42.234 76.4708 43.9012C79.3451 45.3211 82.0202 47.1126 84.4276 49.2296V49.2316C87.6382 52.0613 90.3284 55.4774 92.183 59.362C94.442 64.0882 95.4594 69.5044 94.6657 75.3972Z" fill="white"/>
</g>
<path d="M71.3003 93.2531C66.1733 93.2531 60.8002 92.2229 55.8905 90.273C52.1354 88.7834 48.715 86.7633 45.9994 84.4305C42.6687 81.5704 40.4013 78.3175 39.259 74.7631C39.2245 74.6593 39.211 74.5497 39.2191 74.4406C39.2272 74.3315 39.2569 74.2251 39.3064 74.1276C39.3559 74.0301 39.4242 73.9433 39.5075 73.8723C39.5907 73.8014 39.6872 73.7476 39.7913 73.7142C39.8954 73.6807 40.0052 73.6682 40.1142 73.6775C40.2232 73.6867 40.3292 73.7174 40.4263 73.7679C40.5233 73.8184 40.6094 73.8876 40.6795 73.9715C40.7496 74.0555 40.8024 74.1525 40.8348 74.257C41.8814 77.5163 43.9816 80.5167 47.077 83.1749C49.6555 85.3889 52.9144 87.3117 56.5007 88.7347C62.1199 90.9662 68.3645 91.9441 74.0834 91.4891C75.1978 91.403 76.3068 91.2576 77.4057 91.0535C82.7373 90.0537 89.7616 87.2403 92.9723 79.518C94.8791 72.658 94.3486 65.8112 91.4379 59.7166C91.4324 59.7054 91.4276 59.6943 91.4228 59.6831C89.6679 56.0218 87.1325 52.713 83.882 49.8486L83.8461 49.8151C81.5031 47.7588 78.9008 46.0185 76.1055 44.6386C72.7808 42.9922 69.3193 41.8958 65.8155 41.3797C65.7961 41.3768 65.777 41.3732 65.7581 41.3689C61.5037 40.7499 57.3283 41.0387 53.6805 42.2065C53.4729 42.2682 53.2493 42.2461 53.0577 42.1448C52.8662 42.0436 52.722 41.8713 52.656 41.6649C52.5901 41.4586 52.6076 41.2346 52.7049 41.041C52.8022 40.8474 52.9714 40.6997 53.1764 40.6295C57.0726 39.3847 61.5169 39.074 66.0301 39.7377C66.05 39.7406 66.0696 39.7442 66.0887 39.7485C69.7524 40.2921 73.3691 41.4387 76.8385 43.1573C79.7781 44.6087 82.5137 46.4409 84.9748 48.6066C84.9872 48.6174 84.9991 48.629 85.0107 48.6405C88.4211 51.6541 91.0854 55.1416 92.9296 59.0031C92.9348 59.0146 92.9399 59.0258 92.9447 59.0374C96.0242 65.5049 96.5797 72.7573 94.5508 80.013C94.542 80.0445 94.5314 80.0756 94.5189 80.1059C91.7997 86.6927 85.8295 91.1592 77.7076 92.682C76.5512 92.8968 75.3841 93.0499 74.2114 93.1406C73.2542 93.2159 72.2838 93.2534 71.3003 93.2531Z" fill="#212327"/>
<path d="M98.2935 89.7733C98.0824 89.7735 97.8792 89.6929 97.7256 89.548C97.6877 89.5125 93.9143 85.9816 90.8333 85.1958C90.7272 85.1698 90.6272 85.1229 90.5393 85.058C90.4513 84.9931 90.3771 84.9114 90.3209 84.8177C90.2647 84.7239 90.2276 84.62 90.2118 84.5118C90.196 84.4037 90.2018 84.2935 90.2288 84.1875C90.2559 84.0816 90.3036 83.9821 90.3693 83.8948C90.435 83.8074 90.5173 83.7339 90.6116 83.6786C90.7058 83.6232 90.8101 83.5871 90.9184 83.5722C91.0267 83.5574 91.1368 83.5642 91.2425 83.5921C93.3922 84.1405 95.7143 85.7502 97.2251 86.9459C96.2312 80.0995 93.8808 76.9619 93.8549 76.928C93.7876 76.8418 93.738 76.7432 93.7091 76.6378C93.6801 76.5323 93.6723 76.4222 93.6862 76.3138C93.7 76.2053 93.7352 76.1007 93.7897 76.0059C93.8442 75.9112 93.917 75.8281 94.0037 75.7616C94.0905 75.6951 94.1896 75.6465 94.2953 75.6185C94.401 75.5905 94.5112 75.5838 94.6195 75.5986C94.7278 75.6135 94.8321 75.6496 94.9264 75.705C95.0206 75.7604 95.103 75.8339 95.1687 75.9213C95.2967 76.088 98.3087 80.1091 99.1171 88.8695C99.1277 88.9841 99.1143 89.0996 99.0777 89.2087C99.0412 89.3178 98.9823 89.4181 98.9048 89.5031C98.8272 89.5882 98.7329 89.6561 98.6276 89.7026C98.5224 89.7492 98.4086 89.7732 98.2935 89.7733Z" fill="#212327"/>
<g opacity="0.36">
<path d="M92.8187 73.2387C90.8078 76.4198 84.087 72.5172 75.9878 67.3986C67.8887 62.2799 61.4822 57.8831 63.4931 54.702C65.504 51.5209 73.6985 53.0919 81.7961 58.2118C89.8936 63.3316 94.8292 70.0576 92.8187 73.2387Z" fill="white"/>
</g>
<g opacity="0.3">
<path d="M94.6657 75.3972C94.4657 76.8804 94.1618 78.3478 93.7564 79.7884C90.9047 86.6963 84.7467 90.5171 77.5576 91.8672C76.4304 92.0765 75.2927 92.2256 74.1496 92.3139C68.2129 92.7865 61.8455 91.7475 56.196 89.5041C52.5825 88.0703 49.2622 86.1419 46.5382 83.8027C43.4891 81.1844 41.1838 78.0495 40.0471 74.5098L48.6181 53.3137L55.8669 53.0006C55.8669 53.0006 57.0874 96.9942 94.6657 75.3972Z" fill="#3D1D55"/>
</g>
<path d="M28.3473 80.9941C43.546 80.9941 55.8669 68.4053 55.8669 52.8762C55.8669 37.3471 43.546 24.7582 28.3473 24.7582C13.1486 24.7582 0.827576 37.3471 0.827576 52.8762C0.827576 68.4053 13.1486 80.9941 28.3473 80.9941Z" fill="#FFCD01"/>
<g opacity="0.3">
<path d="M55.867 53.0006C55.867 68.5293 43.5469 81.1185 28.3473 81.1185C15.6982 81.1185 5.04328 72.4 1.82468 60.5246C5.94864 69.1953 14.6532 75.1739 24.7258 75.1739C38.7848 75.1739 50.1795 63.5299 50.1795 49.1698C50.1795 39.2069 44.6956 30.5501 36.6411 26.1849C47.7865 29.7764 55.867 40.4253 55.867 53.0006Z" fill="#3D1D55"/>
</g>
<g opacity="0.7">
<path d="M48.6261 33.9941C43.6985 29.2399 37.0539 26.3284 29.7432 26.3284C23.7387 26.3284 18.1829 28.2927 13.6601 31.627C13.361 36.1617 10.8104 38.457 6.65058 39.147C3.84876 43.5502 2.2235 48.8048 2.2235 54.4464C2.2235 61.775 4.96749 68.4495 9.46437 73.4529C4.14549 68.3279 0.827576 61.0611 0.827576 53.0006C0.827576 37.4719 13.1476 24.8827 28.3473 24.8827C36.3738 24.8827 43.5968 28.3924 48.6261 33.9941Z" fill="white"/>
</g>
<path d="M28.3473 81.9461C12.7165 81.9461 0 68.9612 0 53.0006C0 37.04 12.7165 24.0551 28.3473 24.0551C43.9781 24.0551 56.6945 37.04 56.6945 53.0006C56.6945 68.9612 43.9781 81.9461 28.3473 81.9461ZM28.3473 25.7103C13.6302 25.7103 1.65517 37.9545 1.65517 53.0006C1.65517 68.0467 13.6294 80.291 28.3473 80.291C43.0651 80.291 55.0394 68.0487 55.0394 53.0006C55.0394 37.9525 43.0655 25.7103 28.3473 25.7103Z" fill="#212327"/>
<path d="M11.6209 67.0596C13.5897 67.0596 15.1857 66.1444 15.1857 65.0155C15.1857 63.8866 13.5897 62.9715 11.6209 62.9715C9.6521 62.9715 8.05609 63.8866 8.05609 65.0155C8.05609 66.1444 9.6521 67.0596 11.6209 67.0596Z" fill="#EE3133"/>
<path d="M38.6005 67.5581C40.6748 67.5581 42.3564 66.5537 42.3564 65.3147C42.3564 64.0756 40.6748 63.0712 38.6005 63.0712C36.5262 63.0712 34.8447 64.0756 34.8447 65.3147C34.8447 66.5537 36.5262 67.5581 38.6005 67.5581Z" fill="#EE3133"/>
<path d="M20.361 64.9537C21.4546 66.7142 23.3523 67.7181 25.3413 67.6726C27.4551 67.6295 28.9511 66.175 29.9554 64.4021C29.9795 64.3632 30.0159 64.3335 30.0588 64.3178C30.1018 64.3021 30.1488 64.3012 30.1923 64.3154C30.2358 64.3295 30.2733 64.3579 30.2987 64.3959C30.3242 64.4339 30.3362 64.4794 30.3327 64.525C30.2858 65.1211 30.1434 65.7058 29.9107 66.2567C28.254 70.1837 22.7357 70.3021 20.5636 66.7959C20.2445 66.2647 20.032 65.6736 19.9817 65.077C19.9779 65.031 19.9898 64.9851 20.0153 64.9466C20.0408 64.9082 20.0786 64.8795 20.1225 64.8652C20.1664 64.8509 20.2138 64.8518 20.2571 64.8678C20.3003 64.8838 20.337 64.9139 20.361 64.9533V64.9537Z" fill="#212327"/>
<path d="M9.7852 17.8947C11.2788 17.2797 11.872 15.2814 11.1103 13.4314C10.3485 11.5814 8.52017 10.5802 7.02658 11.1952C5.533 11.8102 4.93974 13.8085 5.70151 15.6585C6.46328 17.5085 8.29161 18.5097 9.7852 17.8947Z" fill="#25231D"/>
<path d="M8.87168 18.9025C7.28392 18.9025 5.67621 17.7726 4.93557 15.9747C4.49685 14.9054 4.42068 13.7531 4.72459 12.7293C5.04725 11.6417 5.75319 10.8257 6.71119 10.4308C7.66919 10.036 8.74525 10.1194 9.73995 10.6642C10.6768 11.1771 11.435 12.0485 11.8753 13.1174C12.314 14.1867 12.3906 15.3393 12.0867 16.3631C11.7636 17.4508 11.0581 18.2668 10.0997 18.6612C9.71014 18.8214 9.29288 18.9034 8.87168 18.9025ZM7.95117 11.8431C7.74201 11.8426 7.53479 11.8832 7.34135 11.9628C6.85477 12.1622 6.48864 12.6009 6.31116 13.2016C6.11453 13.8636 6.16957 14.6254 6.4663 15.3457C7.05299 16.7711 8.40026 17.572 9.46954 17.1321C9.95612 16.9327 10.3223 16.4916 10.4997 15.8933C10.6964 15.2308 10.6413 14.4695 10.3446 13.7488C10.0482 13.0285 9.5509 12.449 8.94507 12.1171C8.64202 11.9438 8.30022 11.8496 7.95117 11.8431Z" fill="#212327"/>
<path d="M38.0442 17.1898C39.5378 16.5748 40.1311 14.5765 39.3693 12.7265C38.6075 10.8764 36.7792 9.87525 35.2856 10.4902C33.792 11.1052 33.1988 13.1035 33.9605 14.9536C34.7223 16.8036 36.5506 17.8048 38.0442 17.1898Z" fill="#25231D"/>
<path d="M37.1165 18.2026C36.5182 18.2026 35.9112 18.043 35.3301 17.724C34.3936 17.211 33.635 16.3396 33.1951 15.2707C32.7552 14.2018 32.6798 13.0488 32.9837 12.025C33.3064 10.9378 34.0123 10.1213 34.9703 9.72689C35.9283 9.33244 37.0044 9.415 38.0015 9.96021C38.938 10.4731 39.6961 11.3442 40.1365 12.4134C41.0705 14.6824 40.2745 17.1696 38.3612 17.9573C37.9664 18.1199 37.5435 18.2032 37.1165 18.2026ZM36.2119 11.1384C36.0026 11.138 35.7953 11.1786 35.6017 11.258C35.1151 11.4574 34.7494 11.8986 34.5715 12.4972C34.3749 13.1593 34.4299 13.9206 34.7266 14.6413C35.0234 15.362 35.5203 15.9412 36.1262 16.2734C36.6742 16.5733 37.2429 16.6279 37.7303 16.4273C38.7996 15.9886 39.192 14.4695 38.6053 13.0444C38.3086 12.3237 37.8116 11.7442 37.2054 11.4124C36.9025 11.2391 36.5608 11.1448 36.2119 11.1384Z" fill="#212327"/>
<path d="M16.8025 28.2979C16.6356 28.2979 16.4725 28.2474 16.3348 28.153C16.197 28.0586 16.0911 27.9247 16.0308 27.769C14.4829 23.7703 12.4461 20.4675 9.97767 17.9525C9.82392 17.7958 9.7387 17.5845 9.74076 17.365C9.74282 17.1455 9.83198 16.9358 9.98864 16.7821C10.1453 16.6284 10.3566 16.5431 10.5761 16.5452C10.7956 16.5472 11.0053 16.6364 11.159 16.7931C13.7862 19.4701 15.9451 22.9615 17.5743 27.1716C17.6228 27.297 17.6401 27.4323 17.6246 27.5659C17.609 27.6994 17.5612 27.8272 17.4852 27.9381C17.4092 28.049 17.3073 28.1397 17.1884 28.2024C17.0694 28.2651 16.937 28.2979 16.8025 28.2979Z" fill="#212327"/>
<path d="M38.3353 30.7623C38.201 30.7623 38.0688 30.7296 37.95 30.6671C37.8311 30.6046 37.7293 30.5141 37.6533 30.4034C37.5772 30.2927 37.5292 30.1652 37.5135 30.0319C37.4977 29.8985 37.5146 29.7633 37.5628 29.638C39.8864 23.5888 37.5915 17.7563 37.5684 17.698C37.4914 17.4958 37.4967 17.2714 37.5831 17.0731C37.6696 16.8747 37.8303 16.718 38.0309 16.6367C38.2314 16.5554 38.4558 16.5559 38.656 16.638C38.8562 16.7202 39.0163 16.8775 39.1019 17.0762C39.2084 17.3379 41.6724 23.5553 39.1079 30.2315C39.0479 30.3877 38.9419 30.522 38.804 30.6168C38.6661 30.7116 38.5027 30.7623 38.3353 30.7623Z" fill="#212327"/>
<g opacity="0.55">
<path d="M35.8422 14.5129C36.4938 14.5129 37.022 13.8433 37.022 13.0173C37.022 12.1913 36.4938 11.5217 35.8422 11.5217C35.1906 11.5217 34.6624 12.1913 34.6624 13.0173C34.6624 13.8433 35.1906 14.5129 35.8422 14.5129Z" fill="white"/>
</g>
<g opacity="0.55">
<path d="M7.35853 15.1044C8.01009 15.1044 8.53829 14.4348 8.53829 13.6088C8.53829 12.7827 8.01009 12.1131 7.35853 12.1131C6.70697 12.1131 6.17877 12.7827 6.17877 13.6088C6.17877 14.4348 6.70697 15.1044 7.35853 15.1044Z" fill="white"/>
</g>
<path d="M60.6111 75.8719C59.5283 77.8381 57.911 79.8343 55.512 81.6171C55.3081 81.7695 55.0721 81.8732 54.822 81.9202C54.445 81.9927 54.0545 81.935 53.7145 81.7567C53.3745 81.5783 53.1051 81.2899 52.9504 80.9385C52.7956 80.5871 52.7647 80.1936 52.8628 79.8224C52.9608 79.4512 53.1819 79.1242 53.4899 78.895C55.5419 77.3715 56.884 75.6525 57.7554 73.9774C59.8912 69.8873 59.2172 66.0625 59.2072 66.0086C59.1242 65.5679 59.2193 65.1123 59.4716 64.7415C59.7239 64.3707 60.1128 64.115 60.5533 64.0304H60.5592C60.7778 63.989 61.0024 63.9911 61.2201 64.0365C61.4379 64.082 61.6445 64.1699 61.8283 64.2953C62.012 64.4207 62.1692 64.5811 62.2909 64.7673C62.4126 64.9535 62.4964 65.1619 62.5375 65.3805C62.5933 65.6676 63.4747 70.669 60.6111 75.8719Z" fill="#FFCD01"/>
<path d="M54.5081 82.7781C54.1132 82.7782 53.7238 82.6863 53.3707 82.5095C53.0176 82.3327 52.7106 82.0761 52.4741 81.7599C52.2764 81.4939 52.1332 81.1917 52.0524 80.8704C51.9717 80.549 51.955 80.215 52.0034 79.8872C52.0518 79.5594 52.1643 79.2444 52.3345 78.9602C52.5047 78.6759 52.7293 78.428 52.9953 78.2306C59.5801 73.3408 58.4036 66.2288 58.3908 66.1578C58.2675 65.5002 58.4105 64.8205 58.7883 64.2683C59.1662 63.7162 59.7479 63.3367 60.4055 63.2134C61.0631 63.0901 61.7428 63.2331 62.295 63.6109C62.8472 63.9888 63.2266 64.5705 63.3499 65.2281C63.4297 65.6437 65.1602 75.4814 56.003 82.2811C55.6997 82.5076 55.3489 82.6622 54.9772 82.7334C54.8226 82.763 54.6655 82.7779 54.5081 82.7781ZM60.8731 64.8277C60.8196 64.8277 60.7662 64.8328 60.7136 64.8428C60.4878 64.886 60.2883 65.0168 60.1587 65.2066C60.0291 65.3965 59.98 65.6299 60.022 65.8559C60.0372 65.9356 61.4634 74.0065 53.9856 79.5595C53.8279 79.6768 53.7146 79.8442 53.6644 80.0342C53.6141 80.2243 53.6299 80.4258 53.7092 80.6058C53.7884 80.7857 53.9264 80.9334 54.1005 81.0246C54.2746 81.1159 54.4746 81.1454 54.6677 81.1082C54.7953 81.0836 54.9157 81.0304 55.0198 80.9526C63.3555 74.7631 61.7972 65.9085 61.7271 65.5344C61.6893 65.3356 61.5833 65.1563 61.4274 65.0272C61.2715 64.8982 61.0755 64.8276 60.8731 64.8277Z" fill="#212327"/>
<path d="M83.957 91.8771C83.8361 92.3101 83.5483 92.6774 83.1568 92.8984C82.7654 93.1193 82.3022 93.1759 81.8691 93.0557C79.2906 92.3378 77.2585 91.1772 75.6612 89.8391L75.6592 89.8371C70.909 85.8587 69.9957 80.291 69.9459 79.9799C69.8771 79.5356 69.9876 79.0822 70.2532 78.7194C70.5187 78.3567 70.9175 78.1143 71.3617 78.0455C71.5817 78.0115 71.8062 78.0211 72.0225 78.0738C72.2387 78.1265 72.4425 78.2213 72.6221 78.3528C72.9849 78.6183 73.2273 79.0171 73.2961 79.4614C73.326 79.6548 73.7747 82.2552 75.6592 84.8716C77.0731 86.8418 79.3025 88.8221 82.7784 89.7892C83.2114 89.91 83.5788 90.1978 83.7998 90.5893C84.0208 90.9808 84.0773 91.444 83.957 91.8771Z" fill="#FFCD01"/>
<path d="M82.3241 93.9451C82.095 93.9449 81.8669 93.9136 81.6461 93.8522C70.8959 90.8573 69.1941 80.5426 69.1267 80.1051C69.0324 79.4477 69.2012 78.7797 69.5963 78.246C69.9915 77.7122 70.5812 77.3559 71.2375 77.2542C71.8937 77.1525 72.5636 77.3137 73.1018 77.7028C73.6399 78.0919 74.003 78.6775 74.1121 79.3325C74.1608 79.6361 75.4127 86.8785 82.999 88.992C83.5861 89.1559 84.0941 89.5269 84.4289 90.0363C84.7638 90.5458 84.9028 91.1592 84.8204 91.7633C84.7379 92.3673 84.4396 92.921 83.9805 93.3221C83.5214 93.7232 82.9326 93.9445 82.3229 93.9451H82.3241ZM71.6214 78.8551C71.4963 78.8551 71.3727 78.8821 71.259 78.9342C71.1453 78.9864 71.0443 79.0626 70.9628 79.1575C70.8813 79.2524 70.8213 79.3638 70.7869 79.484C70.7525 79.6043 70.7445 79.7306 70.7635 79.8542C70.8241 80.2483 72.3588 89.5459 82.0904 92.258C82.1665 92.2792 82.2451 92.2901 82.3241 92.2903C82.5338 92.29 82.7363 92.2137 82.8941 92.0757C83.0519 91.9377 83.1544 91.7472 83.1827 91.5394C83.2109 91.3317 83.163 91.1207 83.0478 90.9455C82.9326 90.7704 82.7578 90.6428 82.5559 90.5865C73.9601 88.1935 72.5351 79.9428 72.4789 79.5926C72.4472 79.3877 72.3434 79.2009 72.1862 79.0657C72.029 78.9305 71.8287 78.8558 71.6214 78.8551Z" fill="#212327"/>
<g opacity="0.3">
<path d="M75.6592 89.8371C70.909 85.8587 69.9957 80.291 69.9459 79.9799C69.8771 79.5356 69.9876 79.0822 70.2532 78.7194C70.5187 78.3567 70.9175 78.1143 71.3617 78.0455C71.5817 78.0115 71.8062 78.0211 72.0225 78.0738C72.2387 78.1265 72.4425 78.2213 72.6221 78.3528C72.9849 78.6183 73.2273 79.0171 73.2961 79.4614C73.326 79.6548 73.7747 82.2552 75.6592 84.8716C75.6592 84.8716 73.5828 86.7242 75.6592 89.8371Z" fill="#3D1D55"/>
</g>
<g opacity="0.3">
<path d="M60.6111 75.8719C60.5767 75.695 60.5573 75.5155 60.5533 75.3354C60.4536 72.2444 57.7574 73.9794 57.7574 73.9794L57.7554 73.9774C59.8912 69.8873 59.2172 66.0625 59.2072 66.0086C59.1242 65.5679 59.2193 65.1123 59.4716 64.7415C59.7239 64.3707 60.1128 64.115 60.5533 64.0304H60.5593C60.7778 63.989 61.0024 63.9911 61.2201 64.0365C61.4379 64.082 61.6445 64.1699 61.8283 64.2953C62.012 64.4207 62.1692 64.5811 62.2909 64.7673C62.4126 64.9535 62.4964 65.1619 62.5375 65.3805C62.5933 65.6676 63.4747 70.669 60.6111 75.8719Z" fill="#3D1D55"/>
</g>
<g opacity="0.3">
<path d="M72.2212 42.1144L60.1664 40.878L60.2322 40.7583C76.9714 40.5589 82.6388 5.73654 68.9348 1.05421L68.9368 1.05222C80.8261 1.87382 91.0918 15.7354 72.2212 42.1144Z" fill="#3D1D55"/>
</g>
<g opacity="0.3">
<path d="M88.0969 53.0006C86.9749 51.649 85.7487 50.3875 84.4296 49.2276V49.2256C82.8235 47.8111 81.0951 46.5418 79.2646 45.4327C91.0044 48.6553 109.472 36.5387 102.311 23.1138C110.208 30.3487 110.426 47.5804 88.0969 53.0006Z" fill="#3D1D55"/>
</g>
<path d="M15.6659 47.3479C18.0653 47.5158 19.795 50.4736 19.5298 53.9546C19.2646 57.4357 17.1049 60.121 14.7039 59.9535C12.3029 59.786 10.5763 56.8294 10.8416 53.3468C11.1068 49.8642 13.2665 47.1804 15.6659 47.3479Z" fill="#232325"/>
<path d="M15.5833 48.8128C16.2801 49.2563 16.4017 50.478 15.8549 51.5409C15.3081 52.6038 14.2995 53.1059 13.6027 52.6624C12.9059 52.2189 12.7843 50.9973 13.3311 49.934C13.8779 48.8707 14.8862 48.3673 15.5833 48.8128Z" fill="white"/>
<path d="M16.8368 56.6101C17.1471 56.9347 17.0789 57.5848 16.6853 58.0618C16.2916 58.5388 15.7205 58.6625 15.409 58.3374C15.0975 58.0124 15.1669 57.3627 15.5606 56.8857C15.9542 56.4087 16.5269 56.2854 16.8368 56.6101Z" fill="#B199C5"/>
<path d="M39.3168 50.0536C36.0863 50.9418 33.6905 53.5534 32.4501 56.5818L31.1989 54.8289C32.7293 54.73 34.276 54.7252 35.8063 54.8955C37.3366 55.0658 38.8474 55.418 40.2334 56.0254C40.2899 56.0496 40.3354 56.094 40.361 56.1499C40.3866 56.2058 40.3904 56.2693 40.3717 56.3278C40.353 56.3864 40.3132 56.436 40.2599 56.4668C40.2067 56.4976 40.1439 56.5074 40.0838 56.4944C37.2313 55.9293 34.3537 56.4055 31.5994 57.188C30.5728 57.4875 29.7348 56.2958 30.3486 55.4331C31.8602 53.1342 33.978 51.1017 36.5968 50.1541C37.4411 49.8439 38.3206 49.6393 39.2151 49.5451C39.2798 49.5378 39.3448 49.5551 39.3973 49.5935C39.4498 49.6319 39.4859 49.6887 39.4985 49.7525C39.5111 49.8163 39.4993 49.8825 39.4653 49.938C39.4314 49.9935 39.3778 50.0342 39.3153 50.052L39.3168 50.0536Z" fill="#212327"/>
</g>
<defs>
<clipPath id="clip0_130_476">
<rect width="108" height="99.8709" fill="white" transform="translate(0 0.189148)"/>
</clipPath>
</defs>
</svg>
