<svg width="50" height="48" viewBox="0 0 50 48" fill="none" xmlns="http://www.w3.org/2000/svg">
<path d="M29.575 2.98689C30.2959 2.21255 31.0002 1.40941 31.7547 0.654961C32.5715 -0.1619 33.5674 -0.209225 34.2519 0.474579C34.9364 1.15838 34.8692 2.13436 34.0743 2.97386C33.8128 3.26261 33.5362 3.53734 33.2457 3.79689C32.0112 4.84763 30.8541 5.91483 32.2753 7.81672C34.7507 7.97926 37.1505 8.73636 39.271 10.0238C44.3464 13.0958 48.1385 17.2432 49.5473 23.1444C49.9108 24.669 49.917 26.4063 49.5939 27.9454C48.7963 31.7375 45.1982 33.9672 41.0893 33.2471C39.2313 32.9213 37.4542 32.1291 35.6449 31.5324C35.3774 31.4446 35.1332 31.2862 34.7101 31.0777C35.1422 37.2326 32.6573 41.3258 26.5922 42.9939C26.5922 44.0227 26.608 45.0597 26.5881 46.094C26.5648 47.3031 25.9708 47.9869 24.9708 47.9965C23.9599 48.0061 23.3474 47.3326 23.3213 46.1276C23.2987 45.0905 23.3165 44.0528 23.3165 42.9966C17.2755 41.3403 14.7625 37.2642 15.1918 31.2684C13.4772 31.8781 11.8489 32.4913 10.1967 33.0269C9.58765 33.2245 8.92305 33.2937 8.27628 33.3308C2.38885 33.6682 -1.06309 29.2067 0.283257 23.1601C1.80587 16.3255 9.41687 8.29545 17.8194 7.79135C17.9819 7.21934 18.2055 6.6439 18.2878 6.04857C18.3276 5.76257 18.1815 5.36683 17.9812 5.14598C17.2837 4.37644 16.5135 3.67343 15.7947 2.9231C15.0341 2.12956 14.9854 1.17484 15.6356 0.496527C16.3098 -0.206481 17.2995 -0.160529 18.1349 0.62684C18.5368 1.00544 18.9332 1.39226 19.3049 1.79966C19.654 2.18169 19.9682 2.59595 20.3029 3.00198C23.4475 0.82574 26.4386 0.810651 29.575 2.98689ZM3.30653 25.134C3.2743 28.1443 4.51159 29.7382 6.78316 30.0002C7.49331 30.08 8.21126 30.0569 8.91482 29.9316C12.4127 29.3041 15.2014 27.3939 17.617 24.8974C19.8934 22.5477 21.5998 19.8543 22.1567 16.5608C22.7637 12.9682 20.5971 10.7309 16.9908 11.2021C16.8626 11.2193 16.735 11.2467 16.6081 11.2707C11.8071 12.2776 8.36407 15.2076 5.65492 19.1177C4.30789 21.0655 3.39638 23.204 3.30722 25.134H3.30653ZM46.6159 25.6532C46.5974 23.3686 45.5186 20.619 43.4884 18.0402C40.8286 14.663 37.5982 12.0794 33.243 11.2707C29.407 10.5588 27.1066 12.8996 27.7883 16.7233C28.2273 19.1842 29.3398 21.3337 30.8747 23.2568C33.5352 26.5887 36.7519 29.1326 41.0632 29.957C44.4424 30.5997 46.642 28.8706 46.6166 25.6532H46.6159ZM31.3651 32.8397C27.0558 35.0344 22.8028 34.9892 18.5471 32.8589C18.3111 36.6483 21.2603 39.7703 24.964 39.7669C28.6676 39.7635 31.6278 36.6215 31.3651 32.8397ZM31.1662 28.4701C30.4118 27.6738 29.7451 26.9166 29.0119 26.2307C28.8062 26.0353 28.3748 25.9193 28.0942 25.9811C26.0254 26.4421 23.8802 26.4398 21.8124 25.9742C21.5491 25.9166 21.1451 25.9893 20.962 26.1642C20.2123 26.8782 19.5217 27.6559 18.7501 28.4742C20.3173 30.6003 22.5943 31.1614 25.0127 31.149C27.3947 31.1388 29.6402 30.5757 31.1662 28.4701ZM24.9105 11.9936C25.4592 11.2748 25.8604 10.5945 26.4098 10.065C26.9831 9.51217 27.7211 9.13221 28.3364 8.61644C28.5311 8.4532 28.6717 8.08764 28.6518 7.82907C28.5181 6.08355 26.8233 4.6597 24.9482 4.66519C23.0731 4.67068 21.3769 6.11579 21.2672 7.85513C21.2507 8.10959 21.4044 8.51836 21.606 8.62124C23.0593 9.37843 24.1128 10.517 24.9105 11.9936ZM24.9551 19.3323L23.3693 22.8988H26.5524C25.9928 21.6519 25.501 20.5484 24.9551 19.3296V19.3323Z" fill="#FFCD01"/>
</svg>
