<svg width="36" height="48" viewBox="0 0 36 48" fill="none" xmlns="http://www.w3.org/2000/svg">
<g clip-path="url(#clip0_135_683)">
<path d="M30.0583 25.0858C28.3256 24.3576 26.5584 23.9781 24.7138 24.0171C21.8405 24.0776 19.2499 24.9572 16.9918 26.7514C16.6977 26.985 16.4274 27.0536 16.0657 26.9888C13.3773 26.5066 10.6742 26.4757 7.95984 26.7369C7.73819 26.7579 7.43653 26.6385 7.27327 26.4801C3.85447 23.1683 2.43105 19.0846 2.68243 14.3823C3.03004 7.88262 7.5879 2.26031 13.8681 0.544419C22.739 -1.87804 31.9288 4.04864 33.2824 13.1346C33.9371 17.5308 32.8294 21.5167 30.0583 25.0858ZM23.0758 8.24483C23.0304 7.72747 22.7941 7.46636 22.3897 7.3631C21.9032 7.23876 21.6167 7.50528 21.3939 7.89073C18.6577 12.6326 15.9219 17.3741 13.1864 22.1152C12.8572 22.6861 12.9464 23.1337 13.4135 23.4094C13.8806 23.6851 14.3325 23.5402 14.6569 22.9802C17.396 18.2412 20.1314 13.4997 22.8633 8.75571C22.9687 8.57568 23.0255 8.36917 23.0758 8.24483ZM16.7117 10.4338C16.5733 9.92288 16.4955 9.38768 16.2852 8.90762C15.8484 7.89992 15.025 7.34742 13.9363 7.33986C12.8475 7.33229 12.0236 7.87506 11.5576 8.87032C11.0067 10.0488 11.0462 11.2333 11.7327 12.3448C11.936 12.6768 12.2124 12.9581 12.5409 13.1671C12.8693 13.3762 13.2412 13.5075 13.6281 13.551C14.0149 13.5945 14.4067 13.5492 14.7734 13.4184C15.1401 13.2876 15.4721 13.0748 15.744 12.7962C16.3755 12.1491 16.6215 11.3452 16.7117 10.4338ZM24.9511 20.3993C24.8165 19.9057 24.7403 19.3862 24.5349 18.9245C24.0835 17.9109 23.2801 17.3422 22.1492 17.3384C20.9944 17.3346 20.1489 17.9017 19.7364 18.9532C19.5062 19.5476 19.4041 20.1839 19.4369 20.8204C19.5251 22.2801 20.5576 23.3645 21.8297 23.4883C23.5531 23.6559 24.8755 22.3239 24.9511 20.3993Z" fill="#FFCD01"/>
<path d="M24.9814 25.7134C31.1222 25.7253 36.0098 30.7621 35.9984 37.0694C35.9893 43.0664 31.0005 48.0183 24.9863 47.9999C18.6731 47.9805 13.7151 43.0031 13.7362 36.705C13.7562 30.7113 18.8817 25.702 24.9814 25.7134ZM23.9807 31.9655C23.9208 31.9877 23.8598 32.0068 23.798 32.0228C22.2205 32.3202 21.2463 33.5365 21.3804 35.0443C21.5248 36.6704 22.6325 37.6933 24.2883 37.7219C24.6987 37.7289 25.1095 37.7133 25.5193 37.7268C26.2005 37.75 26.6486 38.1728 26.6843 38.808C26.7216 39.4756 26.3162 39.9433 25.6128 40.033C25.4353 40.05 25.257 40.0561 25.0787 40.0514C24.151 40.0514 23.2234 40.0552 22.2957 40.0514C21.9075 40.0514 21.5929 40.1595 21.4307 40.5466C21.1745 41.1515 21.5523 41.7208 22.2681 41.757C22.8325 41.7851 23.3996 41.7624 23.991 41.7624C24.0078 42.0495 23.9948 42.2819 24.0391 42.503C24.1202 42.908 24.3635 43.175 24.796 43.2156C25.1966 43.2534 25.4988 43.082 25.6523 42.7144C25.7237 42.5409 25.7345 42.3306 25.7253 42.1392C25.7118 41.8581 25.801 41.7435 26.0951 41.6813C27.6206 41.357 28.5327 40.1136 28.3824 38.6107C28.2299 37.0872 27.1119 36.0558 25.5572 36.0125C25.0939 35.9995 24.6284 36.0266 24.1662 36.0006C23.365 35.9557 22.8952 35.2476 23.139 34.4837C23.3115 33.9431 23.6937 33.6976 24.443 33.6895C25.4955 33.6782 26.5481 33.6922 27.6006 33.6755C28.084 33.6679 28.3521 33.3808 28.3975 32.9062C28.4429 32.4315 28.1618 32.0828 27.679 32.0055C27.4491 31.9783 27.2175 31.9678 26.986 31.9742C26.5821 31.9698 26.1789 31.9742 25.788 31.9742C25.6399 30.8124 25.4528 30.5221 24.8911 30.5145C24.2992 30.5091 24.0981 30.8232 23.9807 31.9655Z" fill="#FFCD01"/>
<path d="M15.0234 28.5419C12.6518 32.2824 12.6518 32.2824 11.9787 36.7565C10.8375 36.7565 9.6979 36.8213 8.56803 36.7424C6.56778 36.6029 4.59673 36.2688 2.74623 35.4612C2.10771 35.1882 1.51065 34.827 0.972494 34.3881C-0.355238 33.2787 -0.29361 31.7148 1.07251 30.6546C2.10723 29.8518 3.32251 29.4361 4.56591 29.0998C7.98958 28.1732 11.4592 28.1143 15.0234 28.5419Z" fill="#FFCD01"/>
<path d="M15.0564 45.2088C10.9061 45.6262 6.89322 45.5592 3.00084 44.1433C2.5846 43.986 2.18194 43.7949 1.79691 43.5719C0.521617 42.8513 -0.227124 41.8382 0.0669665 40.2801C0.0777786 40.2769 0.121026 40.2504 0.140488 40.2628C2.26454 41.7462 4.69997 42.3339 7.21056 42.6123C8.83562 42.7929 10.492 42.9323 12.1144 42.8145C13.1675 42.7377 13.7406 42.9632 14.1449 43.9044C14.3336 44.3487 14.7034 44.7163 15.0564 45.2088Z" fill="#FFCD01"/>
<path d="M0.0664342 35.9088C3.74905 38.4043 7.91227 38.4929 12.0955 38.5989L12.7015 41.1441C11.9263 41.1441 11.1846 41.1624 10.4439 41.1408C8.10473 41.0732 5.78228 40.8527 3.56092 40.0596C2.81326 39.7936 2.09101 39.4249 1.40552 39.0211C0.248079 38.341 -0.139537 37.2738 0.0664342 35.9088Z" fill="#FFCD01"/>
<path d="M23.0758 8.24475C23.0255 8.36855 22.9676 8.5756 22.8649 8.75562C20.1334 13.4989 17.398 18.2404 14.6585 22.9801C14.3341 23.5402 13.879 23.6829 13.4151 23.4093C12.9513 23.1358 12.8588 22.686 13.1881 22.1151C15.9214 17.3722 18.6572 12.6307 21.3956 7.89065C21.6183 7.5052 21.907 7.23868 22.3914 7.36302C22.7941 7.46627 23.0304 7.72739 23.0758 8.24475Z" fill="white"/>
<path d="M16.7117 10.4338C16.6215 11.3452 16.3755 12.1491 15.7451 12.7957C15.4731 13.0742 15.1411 13.287 14.7745 13.4178C14.4078 13.5486 14.016 13.594 13.6291 13.5505C13.2423 13.5069 12.8704 13.3756 12.542 13.1666C12.2135 12.9576 11.9371 12.6763 11.7338 12.3443C11.0473 11.2328 11.0078 10.0483 11.5587 8.86978C12.0236 7.87452 12.848 7.33121 13.9373 7.33932C15.0267 7.34743 15.8495 7.89993 16.2863 8.90708C16.4933 9.38768 16.5733 9.92289 16.7117 10.4338ZM14.9207 10.4559C14.924 9.6515 14.5012 9.05413 13.9217 9.04386C13.3578 9.03413 12.9005 9.65961 12.8978 10.444C12.8951 11.2285 13.3448 11.8496 13.9109 11.8561C14.4882 11.8604 14.918 11.2652 14.9207 10.4559Z" fill="white"/>
<path d="M24.9511 20.3993C24.8755 22.3239 23.5531 23.6559 21.8297 23.4883C20.5576 23.3646 19.5251 22.2806 19.4369 20.8205C19.4041 20.1839 19.5062 19.5476 19.7364 18.9532C20.1489 17.9017 20.9944 17.3346 22.1492 17.3384C23.2801 17.3422 24.0835 17.9109 24.5349 18.9245C24.7403 19.3862 24.8165 19.9057 24.9511 20.3993ZM21.0912 20.4485C21.1328 20.6383 21.1572 20.8713 21.2361 21.0848C21.388 21.4968 21.6642 21.7876 22.1378 21.7876C22.6114 21.7876 22.9249 21.5027 23.0277 21.0789C23.1187 20.7036 23.136 20.3141 23.0785 19.9322C22.9995 19.4489 22.7168 19.0737 22.1627 19.0429C21.701 19.0175 21.3393 19.3505 21.1809 19.9322C21.1393 20.0879 21.1253 20.2485 21.0912 20.4485Z" fill="white"/>
<path d="M23.9807 31.9656C24.0981 30.8233 24.2992 30.5092 24.8911 30.5141C25.4528 30.519 25.6399 30.8093 25.788 31.9737C26.1789 31.9737 26.5821 31.9705 26.986 31.9737C27.2174 31.9673 27.4491 31.9778 27.679 32.0051C28.1618 32.0824 28.4424 32.4376 28.3975 32.9057C28.3526 33.3739 28.0839 33.6675 27.6006 33.675C26.5481 33.6918 25.4955 33.675 24.443 33.6891C23.6937 33.6972 23.3115 33.9399 23.139 34.4832C22.8963 35.2471 23.3661 35.9553 24.1662 36.0002C24.6284 36.0261 25.0939 36.0002 25.5572 36.0121C27.1119 36.0553 28.2299 37.0868 28.3824 38.6102C28.5327 40.1131 27.6206 41.356 26.0951 41.6809C25.801 41.743 25.7118 41.8577 25.7253 42.1388C25.7345 42.3302 25.7253 42.5405 25.6523 42.714C25.5009 43.0816 25.1966 43.2546 24.796 43.2151C24.3635 43.1746 24.1208 42.9075 24.0391 42.5026C23.9948 42.2815 24.0078 42.049 23.991 41.762C23.3996 41.762 22.8325 41.7847 22.2681 41.7566C21.5523 41.7203 21.1745 41.1511 21.4307 40.5461C21.5929 40.1612 21.9059 40.0493 22.2957 40.051C23.2234 40.0547 24.151 40.051 25.0787 40.051C25.257 40.0557 25.4353 40.0495 25.6128 40.0326C26.3156 39.9439 26.7216 39.4752 26.6843 38.8076C26.6486 38.1745 26.1978 37.7517 25.5193 37.7263C25.1095 37.7128 24.6987 37.7263 24.2883 37.7215C22.6325 37.6923 21.5248 36.67 21.3804 35.0438C21.2463 33.5361 22.2205 32.3197 23.798 32.0224C23.8598 32.0065 23.9208 31.9876 23.9807 31.9656Z" fill="white"/>
<path d="M14.9207 10.4559C14.9207 11.2668 14.4882 11.8615 13.9108 11.8561C13.3448 11.8517 12.8956 11.2252 12.8977 10.444C12.8999 9.66281 13.3578 9.03408 13.9217 9.04381C14.5012 9.05408 14.9239 9.65146 14.9207 10.4559Z" fill="#FFCD01"/>
<path d="M21.0912 20.4484C21.1253 20.2484 21.1393 20.0878 21.1809 19.9348C21.3393 19.3532 21.701 19.0201 22.1627 19.0455C22.7168 19.0764 22.9995 19.4515 23.0785 19.9348C23.136 20.3167 23.1187 20.7062 23.0277 21.0815C22.9249 21.5053 22.6114 21.7897 22.1378 21.7902C21.6642 21.7908 21.388 21.4967 21.2361 21.0874C21.1572 20.8712 21.1328 20.6409 21.0912 20.4484Z" fill="#FFCD01"/>
</g>
<defs>
<clipPath id="clip0_135_683">
<rect width="35.9969" height="48" fill="white" transform="translate(0.0015564)"/>
</clipPath>
</defs>
</svg>
