<svg width="40" height="40" viewBox="0 0 40 40" fill="none" xmlns="http://www.w3.org/2000/svg">
<rect x="0.5" y="0.5" width="39" height="39" rx="5.5" stroke="white"/>
<path fill-rule="evenodd" clip-rule="evenodd" d="M13.3331 15C13.3331 14.5397 13.7062 14.1666 14.1665 14.1666H25.8331C26.2934 14.1666 26.6665 14.5397 26.6665 15C26.6665 15.4602 26.2934 15.8333 25.8331 15.8333H14.1665C13.7062 15.8333 13.3331 15.4602 13.3331 15ZM13.3333 20C13.3333 19.5397 13.7063 19.1666 14.1666 19.1666H25.8333C26.2935 19.1666 26.6666 19.5397 26.6666 20C26.6666 20.4602 26.2935 20.8333 25.8333 20.8333H14.1666C13.7063 20.8333 13.3333 20.4602 13.3333 20ZM14.1666 24.1666C13.7063 24.1666 13.3333 24.5397 13.3333 25C13.3333 25.4602 13.7063 25.8333 14.1666 25.8333H25.8333C26.2935 25.8333 26.6666 25.4602 26.6666 25C26.6666 24.5397 26.2935 24.1666 25.8333 24.1666H14.1666Z" fill="white"/>
</svg>
