<svg width="48" height="48" viewBox="0 0 48 48" fill="none" xmlns="http://www.w3.org/2000/svg">
<path fill-rule="evenodd" clip-rule="evenodd" d="M22.596 4.39C23.5012 4.05067 24.4988 4.05067 25.404 4.39L39.404 9.64C40.1666 9.92586 40.8238 10.4377 41.2877 11.1071C41.7516 11.7765 42.0001 12.5716 42 13.386V24.112C42.0001 27.4548 41.0693 30.7317 39.3119 33.5753C37.5545 36.4189 35.0399 38.717 32.05 40.212L25.342 43.566C24.9253 43.7744 24.4659 43.8829 24 43.8829C23.5341 43.8829 23.0747 43.7744 22.658 43.566L15.95 40.212C12.9601 38.717 10.4455 36.4189 8.68814 33.5753C6.93074 30.7317 5.99993 27.4548 6 24.112V13.386C5.9999 12.5716 6.24841 11.7765 6.71231 11.1071C7.1762 10.4377 7.83339 9.92586 8.596 9.64L22.596 4.39ZM24 8.136L10 13.386V24.112C10.0005 26.7117 10.7248 29.26 12.0918 31.4713C13.4589 33.6826 15.4146 35.4695 17.74 36.632L24 39.766V8.136Z" fill="#FDBD04"/>
</svg>
